<svg width="40" height="40" viewBox="0 0 40 40" fill="none" xmlns="http://www.w3.org/2000/svg">
<path d="M10.795 13.6798H27.08C27.265 13.6798 27.415 13.5298 27.415 13.3448C27.415 13.1598 27.265 13.0098 27.08 13.0098H10.795C10.61 13.0098 10.46 13.1598 10.46 13.3448C10.46 13.5298 10.61 13.6798 10.795 13.6798Z" fill="#2B2B2B"/>
<path d="M10.795 20.0798H27.08C27.265 20.0798 27.415 19.9298 27.415 19.7448C27.415 19.5598 27.265 19.4098 27.08 19.4098H10.795C10.61 19.4098 10.46 19.5598 10.46 19.7448C10.46 19.9298 10.61 20.0798 10.795 20.0798Z" fill="#2B2B2B"/>
<path d="M30.47 20.8548C30.35 20.7148 30.135 20.6998 30 20.8248L21.645 28.1648L18.235 24.6048C18.105 24.4698 17.895 24.4698 17.765 24.5948C17.635 24.7198 17.63 24.9348 17.755 25.0648L21.385 28.8548C21.45 28.9248 21.54 28.9598 21.625 28.9598C21.705 28.9598 21.78 28.9298 21.845 28.8748L30.44 21.3198C30.58 21.1998 30.59 20.9848 30.47 20.8498V20.8548Z" fill="#2B2B2B"/>
<path d="M15.385 25.8098H10.795C10.61 25.8098 10.46 25.9598 10.46 26.1448C10.46 26.3298 10.61 26.4798 10.795 26.4798H15.385C15.57 26.4798 15.72 26.3298 15.72 26.1448C15.72 25.9598 15.57 25.8098 15.385 25.8098Z" fill="#2B2B2B"/>
</svg>
