<svg width="182" height="95" viewBox="0 0 182 95" fill="none" xmlns="http://www.w3.org/2000/svg">
<path d="M137.25 89.6799L139.11 91.5199C139.11 91.5199 136.97 94.2899 132.85 94.2899C128.15 94.2899 124.59 90.6799 124.59 85.8599C124.59 81.0399 128.15 77.4299 132.85 77.4299C136.76 77.4299 138.88 79.9899 138.88 79.9899L136.99 81.8299C136.99 81.8299 135.52 80.0399 132.85 80.0399C129.64 80.0399 127.43 82.7199 127.43 85.8599C127.43 88.9999 129.64 91.6799 132.85 91.6799C135.71 91.6799 137.25 89.6799 137.25 89.6799Z" fill="#231815"/>
<path d="M144.37 78.4199V93.9999H147.16V77.4299L144.37 78.4199Z" fill="#231815"/>
<path d="M151.37 77.71L152.1 80.37H156.75V94.01H159.55V80.37H164.56V77.71H151.37Z" fill="#231815"/>
<path d="M178.63 77.71L174.64 85L170.66 77.71H167.6L173.15 87.58V94.01H175.95V87.58L181.51 77.71H178.63Z" fill="#231815"/>
<path d="M5.82023 87.2099C3.42023 86.3699 0.720234 85.0699 0.720234 82.0399C0.720234 79.7399 2.77023 77.4299 6.05023 77.4299C9.33023 77.4299 11.3602 80.0099 11.3602 80.0099L9.43023 81.9199C9.43023 81.9199 8.08023 80.0799 6.05023 80.0799C4.65023 80.0799 3.56023 80.9399 3.56023 82.0399C3.56023 83.4599 4.84023 83.8999 7.07023 84.7399C9.56024 85.6699 11.6302 86.7899 11.6302 89.7399C11.6302 92.6899 9.02023 94.2799 5.95023 94.2799C1.88023 94.2799 -0.00976562 90.9499 -0.00976562 90.9499L2.08023 89.1799C2.08023 89.1799 3.48023 91.6199 5.94023 91.6199C7.34023 91.6199 8.78023 91.0599 8.78023 89.7299C8.78023 88.3999 7.73023 87.8699 5.80023 87.1899L5.82023 87.2099Z" fill="#231815"/>
<path d="M63.1503 85.86C63.1503 90.56 59.8403 94.01 55.1003 94.01H49.8403V77.72H55.1003C59.8503 77.72 63.1503 81.16 63.1503 85.87V85.86ZM60.3103 85.86C60.3103 82.88 58.3103 80.37 55.1403 80.37H52.6303V91.36H55.1403C58.3103 91.36 60.3103 88.82 60.3103 85.87V85.86Z" fill="#231815"/>
<path d="M68.8604 78.4199V93.9999H71.6504V77.4299L68.8604 78.4199Z" fill="#231815"/>
<path d="M88.02 77.7099V87.7399C88.02 90.0699 86.83 91.6299 84.53 91.6299C82.23 91.6299 81.04 90.0699 81.04 87.7399V77.4299L78.25 78.4199V88.0899C78.25 91.6699 80.69 94.2799 84.53 94.2799C88.37 94.2799 90.81 91.6699 90.81 88.0899V77.7099H88.02Z" fill="#231815"/>
<path d="M15.1802 77.71L15.9102 80.37H20.5602V94.01H23.3602V80.37H28.3702V77.71H15.1802Z" fill="#231815"/>
<path d="M110.61 77.71L105.3 85.91L99.9901 77.71H97.4101V77.72H96.6001L97.4101 78.96V94.01H100.2V83.07L105.3 90.82L110.4 83.07V94.01H113.19V77.71H110.61Z" fill="#231815"/>
<path d="M39.0101 77.73H36.1701L29.8301 94.03H32.6501L37.5901 81.25L40.0301 87.6H35.1401L36.1401 90.16H41.0301L42.5201 94.03H45.3401L39.0101 77.73Z" fill="#231815"/>
<path d="M104.58 65.3599C103.12 64.8499 101.48 64.0599 101.48 62.2199C101.48 60.8199 102.72 59.4199 104.72 59.4199C106.72 59.4199 107.95 60.9899 107.95 60.9899L106.78 62.1499C106.78 62.1499 105.96 61.0299 104.73 61.0299C103.88 61.0299 103.22 61.5499 103.22 62.2199C103.22 63.0799 104 63.3499 105.36 63.8599C106.87 64.4299 108.13 65.0999 108.13 66.8999C108.13 68.6999 106.55 69.6599 104.68 69.6599C102.2 69.6599 101.06 67.6399 101.06 67.6399L102.33 66.5599C102.33 66.5599 103.18 68.0499 104.68 68.0499C105.53 68.0499 106.41 67.7099 106.41 66.8999C106.41 66.0899 105.77 65.7699 104.6 65.3599H104.58Z" fill="#231815"/>
<path d="M124.59 69.4901H122.89V59.5901H124.59V69.4901Z" fill="#231815"/>
<path d="M128.26 59.5901L124.59 64.4601L128.51 69.4901H130.5L126.59 64.4601L130.26 59.5901H128.26Z" fill="#231815"/>
<path d="M133.73 60.0299V69.4899H135.43V59.4299L133.73 60.0299Z" fill="#231815"/>
<path d="M82.4804 63.9199L83.1004 65.4999H84.8804V67.5899C84.8804 67.5899 84.3004 68.0699 82.8904 68.0699C80.9004 68.0699 79.4104 66.4399 79.4104 64.5299C79.4104 62.6199 80.8204 60.9899 82.8204 60.9899C84.5004 60.9899 85.3204 62.0199 85.3204 62.0199L86.4804 60.8899C86.4804 60.8899 85.2504 59.3999 82.8204 59.3999C79.9204 59.3999 77.6904 61.5899 77.6904 64.5199C77.6904 67.4499 80.0004 69.6399 82.9004 69.6399C85.3004 69.6399 86.5604 68.3999 86.5604 68.3999V63.8999H82.4904L82.4804 63.9199Z" fill="#231815"/>
<path d="M63.0003 69.4901V59.5901H61.3103V66.4101L56.3603 59.5901H54.2803L54.8303 60.3501V69.4901H56.5203V62.6901L61.4803 69.4901H63.0003Z" fill="#231815"/>
<path d="M71.6603 59.5901H69.9303L66.0903 69.4901H67.8003L70.8003 61.7301L72.2803 65.5901H69.3103L69.9203 67.1401H72.8903L73.7903 69.4901H75.5103L71.6603 59.5901Z" fill="#231815"/>
<path d="M95.0204 59.5901H93.2904L89.4404 69.4901H91.1604L94.1504 61.7301L95.6404 65.5901H92.6704L93.2704 67.1401H96.2504L97.1504 69.4901H98.8604L95.0204 59.5901Z" fill="#231815"/>
<path d="M116.12 59.5901H114.39L110.55 69.4901H112.26L115.26 61.7301L116.74 65.5901H113.77L114.38 67.1401H117.35L118.26 69.4901H119.97L116.12 59.5901Z" fill="#231815"/>
<path d="M40.2502 33.6001H36.7402V47.0301H40.2502V33.6001Z" fill="#B5B5B6"/>
<path d="M138.46 50.53H51.8804V22.52H138.46V50.53ZM55.3904 47.02H134.96V26.02H55.3804V47.02H55.3904Z" fill="#8EC43E"/>
<path d="M162.1 50.53L152.02 47.0201V14.55H127.38V22.52H130.88V18.06H148.51V47.0201H138.46V50.53H148.51H162.1Z" fill="#F8DF08"/>
<path d="M130.89 26.02H127.38V47.02H130.89V26.02Z" fill="#F8DF08"/>
<path d="M51.8801 47.0201H27.4701V33.6001H51.8801V30.0901H23.9701V47.0201L13.8901 50.5301H27.4701H51.8801V47.0201Z" fill="#2696C1"/>
<path d="M59.4502 22.52H62.9602V8.72998H36.7402V30.09H40.2402V12.23H59.4502V22.52Z" fill="#B5B5B6"/>
<path d="M62.9602 26.02H59.4502V30.09H62.9602V26.02Z" fill="#B5B5B6"/>
<path d="M70.5403 22.52V3.51H119.8V22.52H123.31V0H67.0303V22.52H70.5403Z" fill="#A73671"/>
<path d="M70.5403 26.02H67.0303V47.02H70.5403V26.02Z" fill="#A73671"/>
<path d="M123.31 26.02H119.8V47.02H123.31V26.02Z" fill="#A73671"/>
<path d="M59.4504 47.0201H62.9604V30.0901H55.3804V33.6001H59.4504V47.0201Z" fill="#2696C1"/>
</svg>
