<svg width="40" height="40" viewBox="0 0 40 40" fill="none" xmlns="http://www.w3.org/2000/svg">
<path d="M29.4902 17.9202L27.8402 17.7752C27.7952 17.7752 27.7552 17.7452 27.7402 17.7002L27.1002 16.1502C27.0852 16.1102 27.0902 16.0602 27.1202 16.0252L28.1802 14.7552C28.4452 14.4402 28.4252 13.9802 28.1352 13.6902L26.3052 11.8602C26.0152 11.5702 25.5552 11.5502 25.2402 11.8152L23.9702 12.8752C23.9352 12.9052 23.8852 12.9102 23.8452 12.8952L22.2952 12.2552C22.2552 12.2352 22.2252 12.2002 22.2202 12.1552L22.0752 10.5052C22.0402 10.0952 21.7002 9.78516 21.2902 9.78516H18.7052C18.2952 9.78516 17.9552 10.0952 17.9202 10.5052L17.7752 12.1552C17.7752 12.2002 17.7452 12.2402 17.7002 12.2552L16.1502 12.8952C16.1102 12.9102 16.0602 12.9052 16.0252 12.8752L14.7552 11.8152C14.4402 11.5502 13.9852 11.5702 13.6902 11.8602L11.8602 13.6902C11.5702 13.9802 11.5502 14.4402 11.8152 14.7552L12.8752 16.0252C12.9052 16.0602 12.9102 16.1102 12.8952 16.1502L12.2552 17.7002C12.2352 17.7402 12.2002 17.7702 12.1552 17.7752L10.5052 17.9202C10.0952 17.9552 9.78516 18.2952 9.78516 18.7052V21.2902C9.78516 21.7002 10.0952 22.0402 10.5052 22.0752L12.1552 22.2202C12.2002 22.2202 12.2402 22.2502 12.2552 22.2952L12.8952 23.8452C12.9102 23.8852 12.9052 23.9352 12.8752 23.9702L11.8152 25.2402C11.5502 25.5552 11.5702 26.0152 11.8602 26.3052L13.6902 28.1352C13.9802 28.4252 14.4402 28.4452 14.7552 28.1802L16.0252 27.1202C16.0602 27.0902 16.1052 27.0852 16.1502 27.1002L17.7002 27.7402C17.7402 27.7602 17.7702 27.7952 17.7752 27.8402L17.9202 29.4852C17.9552 29.8952 18.2952 30.2052 18.7052 30.2052H21.2902C21.7002 30.2052 22.0402 29.8952 22.0752 29.4852L22.2202 27.8402C22.2202 27.7952 22.2502 27.7552 22.2952 27.7402L23.8452 27.1002C23.8852 27.0852 23.9352 27.0902 23.9702 27.1202L25.2402 28.1802C25.5552 28.4452 26.0152 28.4252 26.3052 28.1352L28.1352 26.3052C28.4252 26.0152 28.4452 25.5552 28.1802 25.2402L27.1202 23.9702C27.0902 23.9352 27.0852 23.8902 27.1002 23.8452L27.7402 22.2952C27.7552 22.2552 27.7952 22.2252 27.8402 22.2202L29.4902 22.0752C29.9002 22.0402 30.2102 21.7002 30.2102 21.2902V18.7052C30.2102 18.2952 29.9002 17.9552 29.4902 17.9202ZM29.5402 21.2952C29.5402 21.3602 29.4902 21.4102 29.4302 21.4152L27.7852 21.5602C27.4902 21.5852 27.2402 21.7702 27.1252 22.0452L26.4852 23.5952C26.3702 23.8652 26.4202 24.1752 26.6102 24.4052L27.6702 25.6752C27.7102 25.7202 27.7052 25.7952 27.6652 25.8402L25.8352 27.6702C25.7902 27.7152 25.7202 27.7152 25.6702 27.6752L24.4002 26.6152C24.1752 26.4252 23.8652 26.3802 23.5902 26.4902L22.0402 27.1302C21.7702 27.2452 21.5852 27.4952 21.5552 27.7902L21.4102 29.4402C21.4052 29.5002 21.3502 29.5502 21.2902 29.5502H18.7052C18.6402 29.5502 18.5902 29.5052 18.5852 29.4402L18.4402 27.7952C18.4152 27.5002 18.2302 27.2502 17.9552 27.1352L16.4052 26.4952C16.3052 26.4552 16.2052 26.4352 16.1002 26.4352C15.9202 26.4352 15.7402 26.5002 15.5952 26.6202L14.3252 27.6802C14.2752 27.7202 14.2052 27.7152 14.1602 27.6752L12.3302 25.8452C12.2852 25.8002 12.2852 25.7302 12.3252 25.6802L13.3852 24.4102C13.5752 24.1852 13.6202 23.8752 13.5102 23.6002L12.8702 22.0502C12.7552 21.7752 12.5052 21.5902 12.2102 21.5652L10.5602 21.4202C10.4952 21.4152 10.4502 21.3602 10.4502 21.3002V18.7152C10.4502 18.6502 10.5002 18.6002 10.5602 18.5952L12.2052 18.4502C12.5002 18.4252 12.7502 18.2402 12.8652 17.9652L13.5052 16.4152C13.6202 16.1402 13.5702 15.8302 13.3802 15.6052L12.3202 14.3352C12.2802 14.2852 12.2852 14.2152 12.3252 14.1702L14.1552 12.3402C14.2002 12.2952 14.2702 12.2902 14.3202 12.3302L15.5902 13.3902C15.8152 13.5802 16.1252 13.6302 16.4002 13.5152L17.9502 12.8752C18.2202 12.7602 18.4102 12.5102 18.4352 12.2152L18.5802 10.5652C18.5852 10.5002 18.6352 10.4552 18.7002 10.4552H21.2852C21.3452 10.4552 21.4002 10.5052 21.4052 10.5652L21.5502 12.2152C21.5752 12.5102 21.7602 12.7602 22.0352 12.8752L23.5852 13.5152C23.8552 13.6302 24.1652 13.5802 24.3952 13.3902L25.6652 12.3302C25.7152 12.2902 25.7852 12.2952 25.8302 12.3352L27.6602 14.1652C27.7052 14.2102 27.7052 14.2802 27.6652 14.3302L26.6052 15.6002C26.4152 15.8252 26.3702 16.1352 26.4802 16.4102L27.1202 17.9552C27.2352 18.2302 27.4852 18.4152 27.7802 18.4402L29.4302 18.5852C29.4952 18.5902 29.5402 18.6452 29.5402 18.7052V21.2952Z" fill="#2B2B2B"/>
<path d="M23.1552 16.3502C21.4902 14.9102 19.0652 14.7802 17.2552 16.0302C17.1052 16.1352 17.0652 16.3402 17.1702 16.4952C17.2752 16.6452 17.4852 16.6852 17.6352 16.5802C19.1952 15.5002 21.2852 15.6152 22.7202 16.8552C24.1552 18.0952 24.5652 20.1452 23.7252 21.8402C23.6452 22.0052 23.7102 22.2052 23.8752 22.2852C23.9252 22.3102 23.9752 22.3202 24.0252 22.3202C24.1502 22.3202 24.2652 22.2502 24.3252 22.1352C25.3002 20.1652 24.8202 17.7852 23.1552 16.3502Z" fill="#2B2B2B"/>
<path d="M22.3652 23.4202C20.8102 24.5002 18.7202 24.3852 17.2852 23.1452C15.8502 21.9052 15.4352 19.8552 16.2752 18.1552C16.3552 17.9902 16.2902 17.7902 16.1252 17.7102C15.9602 17.6302 15.7602 17.6952 15.6802 17.8602C14.7052 19.8302 15.1852 22.2102 16.8502 23.6502C17.7502 24.4302 18.8752 24.8252 20.0052 24.8252C20.9602 24.8252 21.9202 24.5402 22.7502 23.9702C22.9002 23.8652 22.9402 23.6602 22.8352 23.5052C22.7302 23.3552 22.5202 23.3152 22.3702 23.4202H22.3652Z" fill="#2B2B2B"/>
</svg>
